<?xml version="1.0" encoding="utf-8"?>
<svg viewBox="0 0 616.918 155.691" xmlns="http://www.w3.org/2000/svg">
  <g id="SVGRepo_iconCarrier" transform="matrix(1.925185, 0, 0, 1.925185, 23.997873, 26.035376)" style="">
    <g>
      <g>
        <path d="M36.802,1.055L36.747,0l-1.05,0.113c-0.103,0.011-10.252,1.234-10.948,12.581l-0.07,1.136l1.136-0.077 C25.931,13.745,37.426,12.828,36.802,1.055z M34.821,2.322c-0.191,6.838-5.511,8.74-7.953,9.253 C27.798,4.93,32.617,2.905,34.821,2.322z" style="fill: rgb(255, 255, 255); stroke: rgb(255, 255, 255);"/>
        <path d="M46.584,37.517l-0.639-0.207c-3.867-1.25-6.464-4.792-6.464-8.814c0-3.578,2.023-6.778,5.281-8.352l0.972-0.469 l-0.542-0.933c-0.232-0.4-2.401-3.943-6.983-5.116c-3.634-0.93-7.72-0.107-12.149,2.447c-1.875-1.138-8.103-4.418-13.058-1.13 c-0.97,0.536-11.251,6.695-5.9,23.313c0.157,0.372,3.888,9.113,8.303,12.387c1.191,1.138,4.237,2.56,7.718,0.187 c0.603-0.249,4.638-1.802,7.198,0.017c0.945,0.647,2.595,1.38,4.338,1.38c1.322,0,2.697-0.421,3.859-1.621 c0.542-0.469,5.493-4.888,8.066-11.888l0.075-0.204L46.584,37.517z M37.182,49.115l-0.077,0.073 c-2.193,2.303-5.518,0.1-5.641,0.018c-1.308-0.93-2.823-1.233-4.244-1.233c-2.579,0-4.847,0.999-4.992,1.064l-0.163,0.092 c-3.019,2.107-5.086,0.253-5.305,0.042l-0.118-0.101c-3.993-2.912-7.663-11.507-7.668-11.51 C3.966,21.992,13.56,16.9,13.968,16.693l0.11-0.065c4.647-3.12,11.327,1.396,11.393,1.441l0.533,0.366l0.552-0.333 c4.16-2.515,7.914-3.37,11.157-2.539c2.642,0.676,4.326,2.327,5.15,3.342c-3.347,2.051-5.381,5.63-5.381,9.591 c0,4.556,2.735,8.604,6.902,10.365C41.819,45.122,37.231,49.074,37.182,49.115z" style="fill: rgb(255, 255, 255); stroke: rgb(255, 255, 255);"/>
      </g>
    </g>
  </g>
  <path d="M 226.213 270.291 L 230.207 270.291 L 230.207 282.856 Q 230.207 285.32 229.774 286.647 Q 229.191 288.38 227.661 289.429 Q 226.132 290.479 223.627 290.479 Q 220.689 290.479 219.105 288.833 Q 217.52 287.188 217.507 284.007 L 221.284 283.573 Q 221.352 285.279 221.785 285.983 Q 222.435 287.053 223.762 287.053 Q 225.103 287.053 225.658 286.288 Q 226.213 285.523 226.213 283.113 Z M 235.414 290.14 L 235.414 270.291 L 241.412 270.291 L 245.013 283.831 L 248.574 270.291 L 254.586 270.291 L 254.586 290.14 L 250.862 290.14 L 250.862 274.515 L 246.922 290.14 L 243.063 290.14 L 239.137 274.515 L 239.137 290.14 Z M 259.567 290.14 L 259.567 270.291 L 274.284 270.291 L 274.284 273.649 L 263.575 273.649 L 263.575 278.049 L 273.54 278.049 L 273.54 281.394 L 263.575 281.394 L 263.575 286.796 L 274.663 286.796 L 274.663 290.14 Z M 283.526 290.14 L 283.526 273.649 L 277.636 273.649 L 277.636 270.291 L 293.41 270.291 L 293.41 273.649 L 287.533 273.649 L 287.533 290.14 Z" transform="matrix(2.223364, 0, 0, 2.163815, -342.648407, -523.485779)" style="fill: rgb(255, 255, 255); line-height: 46.5844px; white-space: pre;"/>
  <path d="M 332.679 103.246 L 332.679 60.297 L 348.88 60.297 Q 353.157 60.297 355.413 60.707 Q 358.577 61.234 360.716 62.714 Q 362.855 64.193 364.158 66.859 Q 365.462 69.525 365.462 72.719 Q 365.462 78.197 361.976 81.991 Q 358.489 85.785 349.378 85.785 L 338.362 85.785 L 338.362 103.246 Z M 338.362 80.717 L 349.466 80.717 Q 354.974 80.717 357.288 78.666 Q 359.603 76.615 359.603 72.894 Q 359.603 70.199 358.24 68.28 Q 356.878 66.361 354.652 65.746 Q 353.216 65.365 349.349 65.365 L 338.362 65.365 Z M 397.879 60.297 L 403.563 60.297 L 403.563 85.111 Q 403.563 91.586 402.098 95.394 Q 400.633 99.203 396.81 101.591 Q 392.986 103.978 386.775 103.978 Q 380.74 103.978 376.902 101.898 Q 373.065 99.818 371.424 95.878 Q 369.783 91.937 369.783 85.111 L 369.783 60.297 L 375.467 60.297 L 375.467 85.082 Q 375.467 90.678 376.507 93.329 Q 377.547 95.98 380.081 97.416 Q 382.615 98.851 386.277 98.851 Q 392.547 98.851 395.213 96.01 Q 397.879 93.168 397.879 85.082 Z M 410.104 103.246 L 410.104 60.297 L 429.147 60.297 Q 434.89 60.297 437.878 61.454 Q 440.866 62.611 442.653 65.541 Q 444.44 68.471 444.44 72.016 Q 444.44 76.586 441.481 79.721 Q 438.522 82.855 432.341 83.705 Q 434.597 84.789 435.769 85.844 Q 438.259 88.129 440.485 91.557 L 447.956 103.246 L 440.808 103.246 L 435.124 94.31 Q 432.634 90.443 431.022 88.392 Q 429.411 86.342 428.137 85.521 Q 426.862 84.701 425.544 84.379 Q 424.577 84.174 422.38 84.174 L 415.788 84.174 L 415.788 103.246 Z M 415.788 79.252 L 428.005 79.252 Q 431.901 79.252 434.099 78.446 Q 436.296 77.641 437.438 75.868 Q 438.581 74.096 438.581 72.016 Q 438.581 68.969 436.369 67.006 Q 434.157 65.043 429.382 65.043 L 415.788 65.043 Z M 461.535 103.246 L 444.894 60.297 L 451.047 60.297 L 462.209 91.498 Q 463.557 95.248 464.465 98.529 Q 465.461 95.014 466.779 91.498 L 478.381 60.297 L 484.182 60.297 L 467.365 103.246 Z M 487.251 103.246 L 487.251 60.297 L 492.934 60.297 L 492.934 103.246 Z M 500.065 103.246 L 500.065 60.297 L 531.12 60.297 L 531.12 65.365 L 505.749 65.365 L 505.749 78.519 L 529.509 78.519 L 529.509 83.559 L 505.749 83.559 L 505.749 98.178 L 532.116 98.178 L 532.116 103.246 Z M 544.465 103.246 L 533.068 60.297 L 538.898 60.297 L 545.432 88.451 Q 546.486 92.875 547.248 97.24 Q 548.889 90.355 549.182 89.301 L 557.355 60.297 L 564.211 60.297 L 570.363 82.035 Q 572.678 90.121 573.703 97.24 Q 574.523 93.168 575.842 87.894 L 582.58 60.297 L 588.293 60.297 L 576.516 103.246 L 571.037 103.246 L 561.984 70.521 Q 560.842 66.42 560.637 65.482 Q 559.963 68.441 559.377 70.521 L 550.266 103.246 Z" style="fill: rgb(70, 157, 216); white-space: pre;"/>
</svg>